<svg xmlns="http://www.w3.org/2000/svg" xmlns:xlink= "http://www.w3.org/1999/xlink">
    <defs>
        <symbol id="divider-1" viewBox="0 0 2320 111">  
            <g transform="translate(0.000000,111.000000) scale(0.100000,-0.100000)" fill="#be822b" stroke="none">
                <path d="M11323 983 c-42 -65 -82 -133 -88 -152 -20 -56 -4 -96 66 -168 35
                -34 61 -63 57 -63 -3 0 -80 58 -171 129 -239 186 -248 186 -437 -4 -69 -69
                -129 -125 -135 -125 -6 0 -35 25 -65 56 -30 30 -63 60 -72 65 -41 23 -98 -42
                -84 -96 l6 -25 -764 0 -764 0 -38 43 c-75 84 -98 85 -192 13 -67 -52 -70 -53
                -51 -22 13 22 17 40 12 52 -14 35 -78 134 -86 134 -14 0 -87 -125 -87 -149 0
                -14 10 -36 23 -49 28 -31 12 -22 -70 39 -37 29 -75 49 -89 49 -17 0 -44 -18
                -83 -55 l-58 -55 -3864 0 -3864 1 -90 125 c-111 156 -132 174 -192 174 -39 0
                -51 -5 -83 -38 -87 -86 -72 -220 31 -290 19 -13 35 -26 37 -30 1 -4 -14 -16
                -34 -27 -79 -43 -113 -165 -68 -250 24 -45 75 -85 111 -85 59 0 87 25 198 178
                l110 151 3855 1 3854 0 53 -52 c72 -71 97 -70 188 1 40 31 61 44 52 30 -26
                -36 -20 -67 24 -136 23 -35 43 -63 45 -63 2 0 22 28 45 62 47 68 53 106 23
                140 -10 12 8 1 41 -24 70 -52 97 -68 120 -68 9 0 42 25 74 55 l58 55 759 0
                759 0 0 -39 c0 -47 27 -81 64 -81 19 0 43 17 86 60 33 33 64 60 70 60 6 0 62
                -52 125 -116 63 -63 127 -122 142 -130 32 -17 111 -18 141 -2 19 10 140 101
                287 218 l45 35 -58 -65 c-62 -71 -80 -114 -67 -160 12 -42 171 -283 180 -273
                28 31 156 235 167 264 18 54 1 99 -65 171 -31 35 -48 56 -37 47 120 -95 295
                -228 312 -238 30 -15 109 -14 141 3 15 8 79 67 142 130 139 140 146 142 207
                55 36 -49 48 -59 72 -59 41 0 75 43 68 87 l-6 33 762 0 761 0 53 -52 c71 -70
                95 -70 188 2 39 30 63 45 54 35 -32 -38 -31 -58 7 -121 57 -95 55 -94 102 -21
                46 69 51 99 25 137 -11 16 9 4 51 -29 92 -74 117 -74 189 -3 l53 52 4049 0
                4050 -1 105 -146 c104 -145 144 -183 188 -183 77 0 147 84 146 175 -1 28 -8
                64 -17 81 -19 36 -76 89 -108 99 -19 6 -18 9 18 25 116 52 143 207 53 301 -32
                34 -43 39 -81 39 -25 0 -55 -7 -67 -16 -13 -9 -68 -76 -122 -150 l-100 -134
                -4056 0 -4057 0 -58 55 c-39 37 -66 55 -83 55 -14 0 -52 -20 -89 -49 -82 -61
                -98 -70 -69 -39 32 35 28 71 -18 139 -23 32 -43 59 -45 59 -6 0 -80 -112 -88
                -132 -3 -9 3 -32 13 -52 l18 -36 -47 38 c-110 91 -122 92 -200 17 l-58 -55
                -761 0 -761 0 5 29 c7 34 -8 65 -41 87 -32 21 -54 8 -105 -61 -28 -38 -47 -55
                -63 -55 -15 0 -62 40 -147 125 -188 189 -200 189 -436 4 -84 -65 -156 -119
                -160 -119 -5 0 17 26 49 58 68 69 85 113 63 166 -16 38 -162 266 -171 266 -3
                0 -40 -53 -82 -117z"></path>
            </g>
        </symbol>
        <symbol id="divider-2" viewBox="0 0 835 48">
            <g transform="translate(0.000000,48.000000) scale(0.100000,-0.100000)" fill="#41656b" stroke="none">
                <path d="M4075 320 l-80 -80 81 -81 81 -81 82 83 82 82 -78 79 c-42 43 -80 78
                -83 78 -3 0 -41 -36 -85 -80z m101 -71 c10 -17 -13 -36 -27 -22 -12 12 -4 33
                11 33 5 0 12 -5 16 -11z"></path>
                <path d="M3475 310 c-217 -41 -246 -44 -329 -31 -44 8 -113 16 -153 18 -63 4
                -77 2 -109 -17 -35 -23 -40 -23 -193 -14 -161 9 -639 7 -701 -3 -19 -3 -468
                -7 -997 -10 -774 -4 -963 -8 -963 -18 0 -10 64 -12 323 -8 302 5 1338 -10
                1852 -26 152 -5 291 -3 410 5 198 13 237 10 277 -17 32 -23 94 -24 201 -4 105
                20 166 19 283 -6 143 -29 228 -29 359 3 61 15 134 30 162 33 51 7 73 18 55 29
                -5 3 -40 10 -78 16 -38 6 -114 22 -169 35 -101 25 -157 29 -230 15z"></path>
                <path d="M4600 295 c-52 -13 -128 -29 -167 -35 -94 -15 -98 -35 -10 -45 34 -4
                104 -18 155 -31 108 -28 235 -32 327 -9 101 25 229 29 324 11 117 -22 166 -21
                204 7 30 21 39 22 157 17 212 -8 668 -5 1310 8 338 8 796 12 1018 10 317 -2
                402 0 402 10 0 9 -164 12 -787 12 -434 0 -907 5 -1053 11 -344 14 -656 16
                -851 5 -151 -9 -158 -8 -192 12 -42 27 -103 28 -235 6 -101 -18 -131 -16 -327
                21 -110 20 -164 18 -275 -10z"></path>
            </g>
        </svg>
    </defs>
</svg>